# xmcd CD Database Entry
#
# Track frame offsets:
# 150
# 13680
# 29037
# 49485
# 64432
# 83660
# 99622
# 116870
# 143547
# 160165
#
# Disc length: 2340 seconds
#
# Revision: 1
# Processed by: cddbd v1.4b42PL1 Copyright (c) Steve Scherf et al.
# Submitted via: tcd 2.0b
#
DISCID=8b09220a
DTITLE=ida cox with the coleman hawkins quintet - blues for rampart 
DTITLE=street
DYEAR=1900
DGENRE=
TTITLE0=blues for rampart street
TTITLE1=st. louis blues
TTITLE2=fogyism
TTITLE3=wild women don't have the blues
TTITLE4=hard times blues
TTITLE5=cherry pickin' blues
TTITLE6=hard, oh lord
TTITLE7=lawdy, lawdy blues
TTITLE8=death letter blues
TTITLE9=mama goes where papa goes
EXTD=
EXTT0=
EXTT1=
EXTT2=
EXTT3=
EXTT4=
EXTT5=
EXTT6=
EXTT7=
EXTT8=
EXTT9=
PLAYORDER=
